<svg id="visual" viewBox="0 0 900 600" width="900" height="600" xmlns="http://www.w3.org/2000/svg" xmlns:xlink="http://www.w3.org/1999/xlink" version="1.1"><g stroke-width="1" stroke-linejoin="bevel"><path d="M466 262L521 228L420 168Z" fill="#205a7a" stroke="#205a7a"></path><path d="M420 168L399 276L466 262Z" fill="#0c2435" stroke="#0c2435"></path><path d="M521 228L514 90L420 168Z" fill="#15384f" stroke="#15384f"></path><path d="M578 264L589 227L521 228Z" fill="#0c2435" stroke="#0c2435"></path><path d="M521 228L589 227L514 90Z" fill="#19435d" stroke="#19435d"></path><path d="M468 408L578 264L466 262Z" fill="#112e42" stroke="#112e42"></path><path d="M466 262L578 264L521 228Z" fill="#112e42" stroke="#112e42"></path><path d="M514 90L391 99L420 168Z" fill="#15384f" stroke="#15384f"></path><path d="M266 193L299 312L399 276Z" fill="#00101c" stroke="#00101c"></path><path d="M589 227L626 97L514 90Z" fill="#081a28" stroke="#081a28"></path><path d="M578 264L660 202L589 227Z" fill="#277297" stroke="#277297"></path><path d="M589 227L660 202L626 97Z" fill="#1d4e6b" stroke="#1d4e6b"></path><path d="M266 193L399 276L420 168Z" fill="#1d4e6b" stroke="#1d4e6b"></path><path d="M399 276L403 396L466 262Z" fill="#15384f" stroke="#15384f"></path><path d="M391 99L266 193L420 168Z" fill="#112e42" stroke="#112e42"></path><path d="M299 312L403 396L399 276Z" fill="#081a28" stroke="#081a28"></path><path d="M403 396L468 408L466 262Z" fill="#297ea6" stroke="#297ea6"></path><path d="M578 264L700 332L660 202Z" fill="#277297" stroke="#277297"></path><path d="M561 0L528 0L514 90Z" fill="#1d4e6b" stroke="#1d4e6b"></path><path d="M514 90L390 0L391 99Z" fill="#19435d" stroke="#19435d"></path><path d="M528 0L390 0L514 90Z" fill="#246688" stroke="#246688"></path><path d="M391 99L269 65L266 193Z" fill="#00101c" stroke="#00101c"></path><path d="M626 97L561 0L514 90Z" fill="#112e42" stroke="#112e42"></path><path d="M468 408L608 389L578 264Z" fill="#1d4e6b" stroke="#1d4e6b"></path><path d="M294 0L269 65L391 99Z" fill="#277297" stroke="#277297"></path><path d="M266 193L223 276L299 312Z" fill="#15384f" stroke="#15384f"></path><path d="M299 312L266 407L403 396Z" fill="#112e42" stroke="#112e42"></path><path d="M206 196L223 276L266 193Z" fill="#1d4e6b" stroke="#1d4e6b"></path><path d="M660 202L703 101L626 97Z" fill="#00101c" stroke="#00101c"></path><path d="M626 97L662 0L561 0Z" fill="#1d4e6b" stroke="#1d4e6b"></path><path d="M789 217L703 101L660 202Z" fill="#277297" stroke="#277297"></path><path d="M218 60L206 196L266 193Z" fill="#081a28" stroke="#081a28"></path><path d="M608 389L700 332L578 264Z" fill="#00101c" stroke="#00101c"></path><path d="M390 0L294 0L391 99Z" fill="#277297" stroke="#277297"></path><path d="M269 65L218 60L266 193Z" fill="#19435d" stroke="#19435d"></path><path d="M703 101L662 0L626 97Z" fill="#00101c" stroke="#00101c"></path><path d="M621 493L679 392L608 389Z" fill="#081a28" stroke="#081a28"></path><path d="M608 389L679 392L700 332Z" fill="#246688" stroke="#246688"></path><path d="M227 366L266 407L299 312Z" fill="#00101c" stroke="#00101c"></path><path d="M403 396L460 491L468 408Z" fill="#15384f" stroke="#15384f"></path><path d="M218 0L218 60L269 65Z" fill="#246688" stroke="#246688"></path><path d="M378 535L460 491L403 396Z" fill="#19435d" stroke="#19435d"></path><path d="M468 408L621 493L608 389Z" fill="#081a28" stroke="#081a28"></path><path d="M134 335L227 366L223 276Z" fill="#297ea6" stroke="#297ea6"></path><path d="M223 276L227 366L299 312Z" fill="#19435d" stroke="#19435d"></path><path d="M294 0L218 0L269 65Z" fill="#246688" stroke="#246688"></path><path d="M76 235L223 276L206 196Z" fill="#246688" stroke="#246688"></path><path d="M793 336L789 217L700 332Z" fill="#0c2435" stroke="#0c2435"></path><path d="M700 332L789 217L660 202Z" fill="#297ea6" stroke="#297ea6"></path><path d="M703 101L785 60L662 0Z" fill="#0c2435" stroke="#0c2435"></path><path d="M460 491L621 493L468 408Z" fill="#19435d" stroke="#19435d"></path><path d="M804 394L793 336L700 332Z" fill="#205a7a" stroke="#205a7a"></path><path d="M279 496L403 396L266 407Z" fill="#00101c" stroke="#00101c"></path><path d="M279 496L378 535L403 396Z" fill="#15384f" stroke="#15384f"></path><path d="M460 491L528 600L621 493Z" fill="#205a7a" stroke="#205a7a"></path><path d="M789 217L785 60L703 101Z" fill="#00101c" stroke="#00101c"></path><path d="M160 513L279 496L266 407Z" fill="#19435d" stroke="#19435d"></path><path d="M804 394L700 332L679 392Z" fill="#246688" stroke="#246688"></path><path d="M900 0L785 0L785 60Z" fill="#112e42" stroke="#112e42"></path><path d="M76 235L134 335L223 276Z" fill="#081a28" stroke="#081a28"></path><path d="M227 366L138 398L266 407Z" fill="#081a28" stroke="#081a28"></path><path d="M95 116L206 196L218 60Z" fill="#246688" stroke="#246688"></path><path d="M900 77L785 60L789 217Z" fill="#081a28" stroke="#081a28"></path><path d="M785 60L785 0L662 0Z" fill="#246688" stroke="#246688"></path><path d="M621 493L682 517L679 392Z" fill="#246688" stroke="#246688"></path><path d="M611 600L682 517L621 493Z" fill="#246688" stroke="#246688"></path><path d="M64 0L95 116L218 60Z" fill="#277297" stroke="#277297"></path><path d="M0 392L138 398L134 335Z" fill="#081a28" stroke="#081a28"></path><path d="M134 335L138 398L227 366Z" fill="#112e42" stroke="#112e42"></path><path d="M778 524L804 394L679 392Z" fill="#0c2435" stroke="#0c2435"></path><path d="M900 318L900 225L789 217Z" fill="#19435d" stroke="#19435d"></path><path d="M95 116L76 235L206 196Z" fill="#205a7a" stroke="#205a7a"></path><path d="M371 600L528 600L378 535Z" fill="#19435d" stroke="#19435d"></path><path d="M378 535L528 600L460 491Z" fill="#297ea6" stroke="#297ea6"></path><path d="M319 600L378 535L279 496Z" fill="#1d4e6b" stroke="#1d4e6b"></path><path d="M319 600L371 600L378 535Z" fill="#15384f" stroke="#15384f"></path><path d="M528 600L611 600L621 493Z" fill="#081a28" stroke="#081a28"></path><path d="M682 517L778 524L679 392Z" fill="#1d4e6b" stroke="#1d4e6b"></path><path d="M173 600L319 600L279 496Z" fill="#297ea6" stroke="#297ea6"></path><path d="M900 318L789 217L793 336Z" fill="#19435d" stroke="#19435d"></path><path d="M0 392L123 466L138 398Z" fill="#246688" stroke="#246688"></path><path d="M138 398L160 513L266 407Z" fill="#277297" stroke="#277297"></path><path d="M123 466L160 513L138 398Z" fill="#15384f" stroke="#15384f"></path><path d="M682 600L778 524L682 517Z" fill="#0c2435" stroke="#0c2435"></path><path d="M804 394L900 318L793 336Z" fill="#112e42" stroke="#112e42"></path><path d="M900 397L900 318L804 394Z" fill="#277297" stroke="#277297"></path><path d="M900 225L900 77L789 217Z" fill="#15384f" stroke="#15384f"></path><path d="M611 600L682 600L682 517Z" fill="#277297" stroke="#277297"></path><path d="M218 0L64 0L218 60Z" fill="#112e42" stroke="#112e42"></path><path d="M0 139L0 228L76 235Z" fill="#297ea6" stroke="#297ea6"></path><path d="M76 235L0 284L134 335Z" fill="#0c2435" stroke="#0c2435"></path><path d="M0 139L76 235L95 116Z" fill="#19435d" stroke="#19435d"></path><path d="M64 0L0 139L95 116Z" fill="#297ea6" stroke="#297ea6"></path><path d="M900 495L900 397L804 394Z" fill="#277297" stroke="#277297"></path><path d="M0 228L0 284L76 235Z" fill="#1d4e6b" stroke="#1d4e6b"></path><path d="M900 77L900 0L785 60Z" fill="#19435d" stroke="#19435d"></path><path d="M62 600L173 600L160 513Z" fill="#297ea6" stroke="#297ea6"></path><path d="M160 513L173 600L279 496Z" fill="#112e42" stroke="#112e42"></path><path d="M62 600L160 513L123 466Z" fill="#277297" stroke="#277297"></path><path d="M0 284L0 392L134 335Z" fill="#0c2435" stroke="#0c2435"></path><path d="M64 0L0 0L0 139Z" fill="#1d4e6b" stroke="#1d4e6b"></path><path d="M829 600L900 495L778 524Z" fill="#00101c" stroke="#00101c"></path><path d="M778 524L900 495L804 394Z" fill="#00101c" stroke="#00101c"></path><path d="M682 600L829 600L778 524Z" fill="#081a28" stroke="#081a28"></path><path d="M0 392L0 501L123 466Z" fill="#081a28" stroke="#081a28"></path><path d="M0 501L62 600L123 466Z" fill="#205a7a" stroke="#205a7a"></path><path d="M829 600L900 600L900 495Z" fill="#246688" stroke="#246688"></path><path d="M0 501L0 600L62 600Z" fill="#081a28" stroke="#081a28"></path></g></svg>